<?xml version="1.0" encoding="UTF-8"?>
<svg version="1.1" xmlns="http://www.w3.org/2000/svg" width="160" height="156">
<path d="M0 0 C1.20912048 -0.00700928 2.41824097 -0.01401855 3.66400146 -0.02124023 C6.95956703 -0.03576706 10.2544835 -0.03245013 13.55003858 -0.01972389 C17.01009231 -0.00954456 20.47010496 -0.01900297 23.93016052 -0.02526855 C29.73786114 -0.03252974 35.54535775 -0.02299669 41.35302734 -0.00390625 C48.05492439 0.01787005 54.75633476 0.01079987 61.45822006 -0.01121187 C67.22748734 -0.0293975 72.99660861 -0.03190915 78.76589531 -0.0214572 C82.20507558 -0.01524085 85.64402749 -0.01433515 89.08319283 -0.02760315 C92.91777493 -0.03777205 96.75142475 -0.02226095 100.5859375 0 C101.71704453 -0.00809692 102.84815155 -0.01619385 104.01353455 -0.02453613 C111.1497774 0.05213509 115.84012317 0.83146598 121.18010807 5.8939743 C127.23084553 12.5581193 127.02225482 19.60445518 127.00292969 28.10327148 C127.00804062 29.26333206 127.01315155 30.42339264 127.01841736 31.61860657 C127.03230244 35.44826434 127.03135744 39.27774194 127.02905273 43.10742188 C127.0319573 45.09873872 127.03486669 47.09005564 127.03845948 49.08137137 C127.04953848 55.33934077 127.05000106 61.59725015 127.04394531 67.85522461 C127.03790532 74.29911007 127.0502207 80.7427772 127.07151538 87.18662542 C127.08915939 92.73077306 127.09512837 98.27485138 127.09187764 103.81902605 C127.09006918 107.12520309 127.09397995 110.43119011 127.10659218 113.73734856 C127.11893694 117.42589998 127.11217613 121.11394681 127.10058594 124.80249023 C127.10822968 125.88998566 127.11587341 126.97748108 127.12374878 128.09793091 C127.06158359 137.05493967 125.26764319 142.97820642 118.72827148 149.51757812 C112.48227366 153.04131735 106.73750719 152.94996198 99.67773438 152.92163086 C98.48011978 152.92849411 97.28250519 152.93535736 96.04859924 152.94242859 C92.77987266 152.95754608 89.51150554 152.95920375 86.24275899 152.9534862 C83.50679597 152.95038511 80.770884 152.956497 78.03492826 152.96252495 C71.57695282 152.97654778 65.11910974 152.97502767 58.66113281 152.96362305 C52.01439002 152.95214394 45.36805084 152.96621874 38.72136122 152.99301952 C32.99966989 153.0152207 27.27810485 153.02180401 21.55637354 153.01594311 C18.14563382 153.01258283 14.73515275 153.01492613 11.32444954 153.03219414 C7.51872995 153.04709605 3.71389531 153.03643123 -0.09179688 153.01928711 C-1.77139496 153.03378906 -1.77139496 153.03378906 -3.48492432 153.04858398 C-10.641257 152.98118894 -16.30125913 152.02445304 -21.79006863 147.17652035 C-27.82300878 140.63315384 -27.56399696 132.91712809 -27.53051758 124.55615234 C-27.53402222 123.47385849 -27.53752686 122.39156464 -27.5411377 121.276474 C-27.54991932 117.70833872 -27.54411585 114.14040284 -27.53735352 110.57226562 C-27.53870178 108.07992515 -27.54064365 105.58758494 -27.54315186 103.09524536 C-27.54647576 97.20355477 -27.53949119 91.31193586 -27.52885032 85.42025578 C-27.51924375 79.42103324 -27.52881829 73.42193445 -27.53961563 67.42271233 C-27.54687619 62.27345585 -27.54452648 57.12423707 -27.53936005 51.9749794 C-27.53803329 49.51840317 -27.53963684 47.06182344 -27.54431915 44.60525131 C-27.5915248 12.86081394 -27.5915248 12.86081394 -23.14672852 6.45507812 C-15.29845326 1.16602306 -9.50698223 -0.06817685 0 0 Z M-17.58422852 11.95507812 C-20.07080621 15.7309924 -20.39627364 18.8536027 -20.41217041 23.31733704 C-20.41788055 24.28034729 -20.4235907 25.24335754 -20.42947388 26.23554993 C-20.43059174 27.28550644 -20.43170959 28.33546295 -20.43286133 29.41723633 C-20.43782623 30.528237 -20.44279114 31.63923767 -20.44790649 32.78390503 C-20.46252054 36.46206276 -20.46932875 40.14017737 -20.47485352 43.81835938 C-20.48060541 46.37420147 -20.48636314 48.93004355 -20.49212646 51.48588562 C-20.50129131 56.16153903 -20.50759261 60.8371795 -20.51062322 65.51283962 C-20.51510192 72.38388768 -20.53264448 79.25473661 -20.56162381 86.12572414 C-20.58588747 92.08656896 -20.59356958 98.04736444 -20.59529877 104.00826073 C-20.59832482 106.53958406 -20.60635169 109.07090657 -20.61948395 111.60219765 C-20.63655181 115.14486373 -20.6346621 118.68704573 -20.62817383 122.22973633 C-20.63738861 123.27362015 -20.64660339 124.31750397 -20.65609741 125.39302063 C-20.62271577 131.21603404 -20.11672366 135.39345717 -17.27172852 140.51757812 C-13.19593098 144.38958578 -10.06499133 145.63862326 -4.51629639 145.65802002 C-3.53783249 145.66373016 -2.55936859 145.66944031 -1.55125427 145.67532349 C0.05712563 145.67700027 0.05712563 145.67700027 1.69799805 145.67871094 C3.39354073 145.68615829 3.39354073 145.68615829 5.12333679 145.6937561 C8.87186283 145.70838979 12.62034654 145.71518206 16.36889648 145.72070312 C18.97100832 145.72645395 21.57312013 145.73221169 24.17523193 145.73797607 C28.93782234 145.74754727 33.7004036 145.75344402 38.46300244 145.75647283 C45.46367016 145.76094979 52.46414227 145.77848143 59.46475053 145.80747342 C65.53506232 145.83173642 71.60529365 145.83941921 77.67565155 145.84114838 C80.25442316 145.84417503 82.83319394 145.85220393 85.4119339 145.86533356 C89.0217619 145.88239962 92.63111475 145.88051198 96.2409668 145.87402344 C97.30512314 145.88323822 98.36927948 145.892453 99.46568298 145.90194702 C105.33485961 145.86892195 109.56732402 145.39520969 114.72827148 142.51757812 C118.58658199 138.45619864 119.84920945 135.33111177 119.86871338 129.80010986 C119.87442352 128.83006012 119.88013367 127.86001038 119.88601685 126.86056519 C119.8871347 125.79766266 119.88825256 124.73476013 119.8894043 123.63964844 C119.8943692 122.51904022 119.89933411 121.39843201 119.90444946 120.24386597 C119.91908275 116.52780549 119.92587536 112.81178771 119.93139648 109.09570312 C119.93714735 106.51601154 119.94290509 103.93631997 119.94866943 101.35662842 C119.95783864 96.63508449 119.96413734 91.91355765 119.96716619 87.19200635 C119.97164308 80.25189843 119.98917439 73.31198784 120.01816678 66.3719399 C120.04243078 60.35395218 120.05011262 54.33605744 120.05184174 48.31801605 C120.05486825 45.76157304 120.0628967 43.20513087 120.07602692 40.64871979 C120.0930943 37.07002351 120.09120502 33.49180648 120.0847168 29.91308594 C120.09853897 28.33087753 120.09853897 28.33087753 120.11264038 26.71670532 C120.07944449 20.8673259 119.58588327 16.66496009 116.72827148 11.51757812 C112.3286863 7.23080282 108.82702145 6.39803553 102.84585571 6.37713623 C101.86457199 6.37142609 100.88328827 6.36571594 99.87226868 6.35983276 C98.80203964 6.3587149 97.73181061 6.35759705 96.62915039 6.35644531 C95.49703629 6.35148041 94.36492218 6.3465155 93.19850159 6.34140015 C89.45060622 6.32678612 85.70275317 6.31997823 81.95483398 6.31445312 C79.35175576 6.30870165 76.74867756 6.30294392 74.14559937 6.29718018 C69.38418035 6.28761452 64.62277047 6.28171402 59.86134303 6.27868342 C52.86067547 6.27420255 45.86020314 6.25664948 38.85959494 6.22768283 C32.78874371 6.20343803 26.71797293 6.19573802 20.64707565 6.19400787 C18.06747753 6.19097947 15.48788027 6.18294468 12.90831375 6.16982269 C9.30078556 6.15277951 5.69373369 6.1546384 2.08618164 6.16113281 C0.48691078 6.14731064 0.48691078 6.14731064 -1.14466858 6.13320923 C-7.96414997 6.17169118 -12.68165294 6.78749847 -17.58422852 11.95507812 Z " fill="#A34CF0" transform="translate(30.271728515625,1.482421875)"/>
<path d="M0 0 C1.72287735 -0.00284752 1.72287735 -0.00284752 3.4805603 -0.00575256 C7.26933663 -0.00945134 11.05792046 0.00122923 14.84667969 0.01245117 C17.47890195 0.01364333 20.11112465 0.01409606 22.74334717 0.01383972 C28.25437814 0.01477465 33.76535386 0.02343819 39.27636719 0.03710938 C45.6509805 0.05286427 52.02553347 0.05810631 58.40016484 0.05737382 C64.5351042 0.05676406 70.67002069 0.0619712 76.80495453 0.07016563 C79.41575756 0.07335557 82.02656237 0.07532046 84.63736725 0.07605934 C88.27650517 0.07821757 91.91556603 0.08694965 95.5546875 0.09765625 C96.64145782 0.09720306 97.72822815 0.09674988 98.84793091 0.09628296 C99.83487946 0.10054794 100.821828 0.10481293 101.83868408 0.10920715 C102.69922016 0.110883 103.55975624 0.11255884 104.44636917 0.11428547 C106.51855469 0.24291992 106.51855469 0.24291992 108.51855469 1.24291992 C108.51855469 2.23291992 108.51855469 3.22291992 108.51855469 4.24291992 C107.55637795 4.24373707 107.55637795 4.24373707 106.5747633 4.24457073 C90.97635371 4.25952941 75.37829795 4.30193868 59.78006268 4.37501049 C52.23688705 4.40968342 44.69389461 4.435019 37.15063477 4.43847656 C30.57691903 4.4415133 24.00352933 4.46196401 17.42993957 4.50344449 C13.94823889 4.52480332 10.46700204 4.53736077 6.98523521 4.52907372 C3.10108422 4.52015489 -0.78223024 4.55010985 -4.66625977 4.58349609 C-5.82431625 4.57487045 -6.98237274 4.56624481 -8.17552185 4.55735779 C-9.75936172 4.580289 -9.75936172 4.580289 -11.37519836 4.60368347 C-12.29422597 4.60644885 -13.21325357 4.60921423 -14.1601305 4.61206341 C-16.71340623 5.04429769 -16.71340623 5.04429769 -18.17558575 7.5953722 C-18.6065194 8.46906295 -19.03745306 9.3427537 -19.48144531 10.24291992 C-20.47144531 11.72791992 -20.47144531 11.72791992 -21.48144531 13.24291992 C-21.79266516 15.60260442 -21.79266516 15.60260442 -21.75991821 18.27323914 C-21.7710817 19.31230408 -21.78224518 20.35136902 -21.79374695 21.42192078 C-21.79590714 22.56127579 -21.79806732 23.7006308 -21.80029297 24.87451172 C-21.81033859 26.07463898 -21.82038422 27.27476624 -21.83073425 28.51126099 C-21.85634968 31.80233846 -21.87319044 35.09324307 -21.88616228 38.3843801 C-21.90178256 41.8237524 -21.92857627 45.26303705 -21.95419312 48.7023468 C-22.00100051 55.21521034 -22.03773508 61.72809033 -22.07086599 68.24103624 C-22.10907357 75.65577095 -22.15848727 83.07041766 -22.20885015 90.48507822 C-22.31219914 105.73762853 -22.40144983 120.99022817 -22.48144531 136.24291992 C-23.47144531 136.57291992 -24.46144531 136.90291992 -25.48144531 137.24291992 C-24.70664795 140.23444574 -24.70664795 140.23444574 -23.48144531 143.24291992 C-22.49144531 143.57291992 -21.50144531 143.90291992 -20.48144531 144.24291992 C-19.79394531 146.30541992 -19.79394531 146.30541992 -19.48144531 148.24291992 C-24.70823965 144.57003741 -27.21235711 140.46387942 -28.48144531 134.24291992 C-28.56986869 132.67471608 -28.60770494 131.10324158 -28.60842896 129.532547 C-28.61124878 128.58925537 -28.6140686 127.64596375 -28.61697388 126.67408752 C-28.61393753 125.13191811 -28.61393753 125.13191811 -28.61083984 123.55859375 C-28.61259216 122.47031281 -28.61434448 121.38203186 -28.6161499 120.26077271 C-28.62055669 116.65714938 -28.61763349 113.05357502 -28.61425781 109.44995117 C-28.61493143 106.94374075 -28.61590194 104.43753039 -28.61715698 101.93132019 C-28.61863257 96.67312114 -28.61658025 91.41493482 -28.61181641 86.15673828 C-28.60638841 80.09586512 -28.60812677 74.03502567 -28.61364281 67.97415334 C-28.61874819 62.12864094 -28.61818103 56.28314125 -28.61526108 50.43762779 C-28.61459555 47.95820804 -28.61540712 45.47878742 -28.61774063 42.99936867 C-28.62029223 39.52429587 -28.61639061 36.04928682 -28.61083984 32.57421875 C-28.61387619 31.04723106 -28.61387619 31.04723106 -28.61697388 29.48939514 C-28.57009642 13.5734935 -28.57009642 13.5734935 -25.23144531 9.49291992 C-24.32394531 8.75041992 -23.41644531 8.00791992 -22.48144531 7.24291992 C-21.67707031 6.35604492 -20.87269531 5.46916992 -20.04394531 4.55541992 C-14.23354153 -0.68811519 -7.39523203 -0.03852654 0 0 Z " fill="#AC49FC" transform="translate(31.4814453125,2.757080078125)"/>
<path d="M0 0 C2.99447974 1.92502269 3.68040056 3.16904145 4.9375 6.4375 C5.0215215 9.88238149 4.08974412 11.28333264 2 14 C-2.43243243 18 -2.43243243 18 -5 18 C-2.525 21.465 -2.525 21.465 0 25 C0.99 22.36 1.98 19.72 3 17 C4.98 17.33 6.96 17.66 9 18 C8.68817931 19.41681634 8.37551263 20.83344651 8.0625 22.25 C7.80146484 23.43335938 7.80146484 23.43335938 7.53515625 24.640625 C7.052444 26.76878703 6.53836822 28.88532842 6 31 C7.98 31.33 9.96 31.66 12 32 C12.04254356 33.99954746 12.04080783 36.00041636 12 38 C11.67 38.33 11.34 38.66 11 39 C7.09467317 38.62206515 3.7184246 38.23947487 0 37 C-0.70125 37.309375 -1.4025 37.61875 -2.125 37.9375 C-7.09448967 39.77405053 -11.99793935 39.87046115 -16.875 37.75 C-20.68302469 34.61397966 -21.86581196 33.18852266 -22.4375 28.125 C-22.27773148 23.84320378 -20.75247662 21.30297194 -18 18 C-17.01 17.34 -16.02 16.68 -15 16 C-15.09539062 15.40832031 -15.19078125 14.81664063 -15.2890625 14.20703125 C-16.43740893 6.02172473 -16.43740893 6.02172473 -14 2 C-9.55125331 -0.96583112 -5.21729153 -0.63358413 0 0 Z M-7 5 C-7.66 5.66 -8.32 6.32 -9 7 C-8.67801034 10.09926819 -8.67801034 10.09926819 -8 13 C-5.49034386 12.29660434 -5.49034386 12.29660434 -3 11 C-1.93245166 9.06599083 -1.93245166 9.06599083 -2 7 C-2.66 6.34 -3.32 5.68 -4 5 C-4.99 5 -5.98 5 -7 5 Z M-12 22 C-14.30163882 25.45245824 -14.34490322 26.94738713 -14 31 C-12.11499729 33.31563087 -12.11499729 33.31563087 -9 33.25 C-5.88500271 33.31563087 -5.88500271 33.31563087 -4 31 C-5.14206358 29.49712782 -6.28874957 27.99776716 -7.4375 26.5 C-8.07558594 25.6646875 -8.71367188 24.829375 -9.37109375 23.96875 C-9.90863281 23.3190625 -10.44617188 22.669375 -11 22 C-11.33 22 -11.66 22 -12 22 Z " fill="#B881EE" transform="translate(85,54)"/>
<path d="M0 0 C1.32 0.33 2.64 0.66 4 1 C4.89634408 4.07284217 5.12560811 6.8136462 5.12698364 10.00976562 C5.12980347 11.01918213 5.13262329 12.02859863 5.13552856 13.06860352 C5.13350433 14.17002686 5.1314801 15.2714502 5.12939453 16.40625 C5.13114685 17.5708374 5.13289917 18.7354248 5.13470459 19.93530273 C5.13911082 23.79021692 5.1361894 27.64508534 5.1328125 31.5 C5.13348589 34.17513079 5.13445463 36.85026018 5.13571167 39.52539062 C5.13753047 45.13411964 5.13513464 50.74283548 5.13037109 56.3515625 C5.12492903 62.834018 5.12669189 69.31644205 5.1321975 75.79889679 C5.13673686 81.36672484 5.13737514 86.93454343 5.13475883 92.50237274 C5.1332006 95.82686466 5.13338307 99.15133856 5.13629532 102.47583008 C5.13882915 106.18182515 5.13497082 109.88775946 5.12939453 113.59375 C5.13141876 114.69517334 5.13344299 115.79659668 5.13552856 116.93139648 C5.13270874 117.94081299 5.12988892 118.95022949 5.12698364 119.99023438 C5.12660662 120.86627319 5.12622959 121.74231201 5.12584114 122.64489746 C5.00551764 124.89673791 4.62989268 126.84060513 4 129 C3.01 129 2.02 129 1 129 C0.62875 130.1446875 0.62875 130.1446875 0.25 131.3125 C-1.1387103 134.29822715 -2.14829927 135.40640253 -5 137 C-6.32 137 -7.64 137 -9 137 C-8.67 136.01 -8.34 135.02 -8 134 C-7.01714854 133.54751688 -7.01714854 133.54751688 -6.01444149 133.08589268 C-3.83515704 132.18405124 -3.83515704 132.18405124 -3.18252659 130.0394659 C-2.03187086 123.32414173 -1.70076254 116.79618672 -1.69702148 109.98852539 C-1.68436249 108.25255096 -1.68436249 108.25255096 -1.67144775 106.48150635 C-1.64582362 102.68688512 -1.6335682 98.8923414 -1.62109375 95.09765625 C-1.60490808 92.4511143 -1.5878681 89.80459262 -1.56959534 87.1580658 C-1.52813043 80.92170582 -1.49562365 74.68533788 -1.46712118 68.44890636 C-1.41289486 56.60083417 -1.34499034 44.7528576 -1.26918221 32.90490532 C-1.24632604 29.01221878 -1.23007497 25.11954338 -1.21446228 21.2268219 C-1.2010606 18.85311762 -1.18744623 16.47941453 -1.17358398 14.10571289 C-1.17097061 13.01947128 -1.16835724 11.93322968 -1.16566467 10.81407166 C-1.15876617 9.82311493 -1.15186768 8.8321582 -1.14476013 7.81117249 C-1.14090522 6.94937913 -1.1370503 6.08758577 -1.13307858 5.19967747 C-1 3 -1 3 0 0 Z " fill="#AA49F9" transform="translate(152,13)"/>
<path d="M0 0 C3.34125 -0.0825 6.6825 -0.165 10.125 -0.25 C11.16672363 -0.28641602 12.20844727 -0.32283203 13.28173828 -0.36035156 C19.20118031 -0.4309431 22.49278183 0.07081793 27 4 C29.59076756 7.41510269 29.35933413 10.83172404 29 15 C27.40791829 19.13941246 25.87579706 21.76848048 22 24 C19.02122521 24.9272945 16.36087579 25.10824817 13.25 25.0625 C11.14625 25.0315625 11.14625 25.0315625 9 25 C9 29.29 9 33.58 9 38 C6.03 38 3.06 38 0 38 C0 25.46 0 12.92 0 0 Z M9 7 C9 10.63 9 14.26 9 18 C11.165625 17.8453125 11.165625 17.8453125 13.375 17.6875 C14.18710937 17.62949219 14.99921875 17.57148437 15.8359375 17.51171875 C18.37921338 17.17009472 18.37921338 17.17009472 20 14 C19.6758631 10.67759676 19.39223697 9.39223697 17 7 C14.31160615 6.73008094 11.70858064 6.91262643 9 7 Z " fill="#AF7EE4" transform="translate(32,54)"/>
<path d="M0 0 C1.04577713 -0.0071553 2.09155426 -0.01431061 3.16902161 -0.02168274 C4.31608078 -0.02437164 5.46313995 -0.02706055 6.6449585 -0.02983093 C8.45754402 -0.03968773 8.45754402 -0.03968773 10.30674744 -0.04974365 C14.31499478 -0.06949208 18.3232021 -0.0811446 22.33148193 -0.09111023 C23.71287811 -0.09515872 25.09427409 -0.09927567 26.47566986 -0.10346031 C32.96672995 -0.12250796 39.4577787 -0.13673937 45.94886136 -0.14507228 C53.43406184 -0.15484079 60.91896631 -0.18115165 68.40406251 -0.22157317 C74.19442054 -0.25176619 79.98469387 -0.26654419 85.77512908 -0.26985329 C89.23120373 -0.27220035 92.68696198 -0.2811151 96.14295197 -0.30631447 C100.00178932 -0.33399686 103.86023944 -0.32975428 107.71917725 -0.32279968 C108.8581395 -0.33560974 109.99710175 -0.3484198 111.170578 -0.36161804 C118.55952688 -0.31307994 123.23477196 0.59584564 128.71820068 5.85029602 C129.79241943 7.28258769 130.86663818 8.71487935 131.94085693 10.14717102 C131.45408069 10.70407246 130.96730444 11.26097389 130.4657774 11.83475113 C128.68018661 14.54245671 128.55907304 15.9333978 128.54212952 19.14588928 C128.52959137 20.15267227 128.51705322 21.15945526 128.50413513 22.19674683 C128.50557022 23.29510361 128.50700531 24.39346039 128.50848389 25.52510071 C128.49829224 26.68635971 128.48810059 27.84761871 128.4776001 29.04406738 C128.44738486 32.88577546 128.43819084 36.72723455 128.42913818 40.56904602 C128.41229782 43.23135671 128.39429449 45.893634 128.3747406 48.55592346 C128.33107296 54.84918114 128.30252771 61.14241291 128.27941722 67.435776 C128.25236689 74.60146824 128.20845533 81.76702612 128.1631285 88.93262243 C128.07027856 103.67072587 127.99859943 118.40888722 127.94085693 133.14717102 C127.61085693 133.14717102 127.28085693 133.14717102 126.94085693 133.14717102 C126.93846858 132.56094436 126.93608023 131.97471769 126.9336195 131.37072659 C126.87441695 117.08951819 126.79883333 102.80846546 126.70514202 88.52744198 C126.66022578 81.62115953 126.62080162 74.71492816 126.59442139 67.80854797 C126.56894543 61.14298212 126.52801278 54.47767455 126.47767067 47.81224251 C126.46099122 45.26979467 126.44948368 42.72730744 126.44324303 40.18481255 C126.43361407 36.62246229 126.40556749 33.06069589 126.37322998 29.49848938 C126.37466507 28.44832138 126.37610016 27.39815338 126.37757874 26.31616211 C126.30285614 20.49212132 125.75730433 16.28462838 122.94085693 11.14717102 C119.11333781 7.44312025 115.22181491 7.02477091 110.05844116 7.00672913 C109.07715744 7.00101898 108.09587372 6.99530884 107.08485413 6.98942566 C106.01462509 6.9883078 104.94439606 6.98718994 103.84173584 6.98603821 C102.70962173 6.9810733 101.57750763 6.9761084 100.41108704 6.97099304 C96.66319167 6.95637902 92.91533862 6.94957113 89.16741943 6.94404602 C86.56434121 6.93829455 83.96126301 6.93253682 81.35818481 6.92677307 C76.5967658 6.91720742 71.83535592 6.91130692 67.07392848 6.90827632 C60.07326092 6.90379545 53.07278859 6.88624237 46.07218039 6.85727572 C40.00132916 6.83303092 33.93055838 6.82533092 27.8596611 6.82360077 C25.28006298 6.82057237 22.70046572 6.81253757 20.1208992 6.79941559 C16.51337101 6.78237241 12.90631914 6.78423129 9.29876709 6.79072571 C7.69949623 6.77690353 7.69949623 6.77690353 6.06791687 6.76280212 C0.60657761 6.79362015 -3.36286541 7.02307748 -8.05914307 10.14717102 C-11.7550647 14.0979838 -12.18494671 17.88531859 -12.17939758 23.14588928 C-12.18145958 24.65606377 -12.18145958 24.65606377 -12.18356323 26.19674683 C-12.17996796 27.29510361 -12.17637268 28.39346039 -12.17266846 29.52510071 C-12.17281448 30.68635971 -12.17296051 31.84761871 -12.17311096 33.04406738 C-12.17241381 36.88574587 -12.1646306 40.72737599 -12.15679932 44.56904602 C-12.15493443 47.23133934 -12.15346167 49.89362997 -12.1525116 52.55592346 C-12.14940447 58.84921599 -12.14119942 65.14249112 -12.13116211 71.435776 C-12.11998177 78.60138901 -12.11448568 85.76700286 -12.10946667 92.93262243 C-12.0990163 107.67081418 -12.08142882 122.4089923 -12.05914307 137.14717102 C-12.71914307 137.14717102 -13.37914307 137.14717102 -14.05914307 137.14717102 C-14.15260149 121.19635568 -14.22312952 105.24562921 -14.26639175 89.29460621 C-14.28701347 81.88819028 -14.31512635 74.48194452 -14.36090088 67.07563782 C-14.40078091 60.61997971 -14.42657873 54.16444485 -14.43549705 47.70866698 C-14.44070992 44.29059606 -14.4529532 40.87287769 -14.48206329 37.45491982 C-14.51102839 33.63833692 -14.51510177 29.82248842 -14.51324463 26.0058136 C-14.52762573 24.87364914 -14.54200684 23.74148468 -14.55682373 22.57501221 C-14.51613231 14.86532995 -14.51613231 14.86532995 -12.15576172 11.15600586 C-11.11793549 10.16163261 -11.11793549 10.16163261 -10.05914307 9.14717102 C-9.39914307 7.82717102 -8.73914307 6.50717102 -8.05914307 5.14717102 C33.19085693 5.14717102 74.44085693 5.14717102 116.94085693 5.14717102 C116.94085693 4.15717102 116.94085693 3.16717102 116.94085693 2.14717102 C101.41573133 2.07701876 85.89061762 2.02415241 70.36537075 1.9917345 C63.15634798 1.97628067 55.94742382 1.95521968 48.73846436 1.92085266 C42.45345255 1.89090469 36.16851219 1.87158523 29.88343102 1.86490554 C26.55701163 1.86100236 23.23084366 1.85027552 19.90447807 1.82998085 C16.18658208 1.80819981 12.46910921 1.80520447 8.75115967 1.80659485 C7.10577713 1.79041611 7.10577713 1.79041611 5.42715454 1.77391052 C-1.53410214 1.80207453 -6.84296183 2.29855335 -12.24664307 7.08467102 C-12.84476807 7.76529602 -13.44289307 8.44592102 -14.05914307 9.14717102 C-15.3924764 10.48050435 -16.72580973 11.81383769 -18.05914307 13.14717102 C-18.12164307 10.52217102 -18.12164307 10.52217102 -17.05914307 7.14717102 C-11.8721502 2.66140184 -6.89148661 0.03236562 0 0 Z " fill="#9E54E2" transform="translate(23.05914306640625,1.8528289794921875)"/>
<path d="M0 0 C3.89567451 2.05558996 6.206331 4.25597626 7.9609375 8.28125 C7.9609375 9.27125 7.9609375 10.26125 7.9609375 11.28125 C5.3209375 11.94125 2.6809375 12.60125 -0.0390625 13.28125 C-0.4103125 12.45625 -0.7815625 11.63125 -1.1640625 10.78125 C-2.83561813 7.97888782 -2.83561813 7.97888782 -6.0390625 7.65625 C-9.09735219 8.01492394 -9.09735219 8.01492394 -10.9140625 10.09375 C-13.01775408 16.05420949 -12.84020762 21.95792915 -10.7890625 27.90625 C-9.24276208 30.33496985 -9.24276208 30.33496985 -7.1015625 31.40625 C-4.83163866 31.47232837 -4.83163866 31.47232837 -2.8515625 29.46875 C-1.01303021 27.41776577 -1.01303021 27.41776577 -0.0390625 25.28125 C2.9309375 25.61125 5.9009375 25.94125 8.9609375 26.28125 C7.46951048 31.62553014 5.64448463 35.71584751 0.7109375 38.59375 C-4.32413954 39.85251926 -8.38855482 39.86378212 -13.2265625 38.15625 C-16.91385235 35.69805677 -20.12524634 32.85497274 -21.65625 28.54296875 C-23.15255301 19.70256627 -23.23837829 10.79137281 -18.0390625 3.28125 C-13.17671189 -1.2864127 -6.25197444 -2.20376111 0 0 Z " fill="#BD7DF5" transform="translate(121.0390625,53.71875)"/>
<path d="M0 0 C15.08997618 -0.02333906 30.17995096 -0.04098414 45.26994133 -0.05181217 C52.27615842 -0.05697298 59.28236431 -0.0640116 66.28857422 -0.07543945 C73.04476196 -0.08645426 79.80093564 -0.09227769 86.55713272 -0.09487724 C89.14002796 -0.09673077 91.72292253 -0.10035 94.30581284 -0.10573006 C97.91206004 -0.11294573 101.51825851 -0.11399071 105.12451172 -0.11352539 C106.20200684 -0.11712067 107.27950195 -0.12071594 108.38964844 -0.12442017 C109.36843964 -0.1230455 110.34723083 -0.12167084 111.35568237 -0.12025452 C112.63605283 -0.12163721 112.63605283 -0.12163721 113.94228935 -0.12304783 C116 0 116 0 118 1 C118 1.99 118 2.98 118 4 C79.06 4 40.12 4 0 4 C0 2.68 0 1.36 0 0 Z " fill="#AC46FE" transform="translate(22,3)"/>
<path d="M0 0 C16 0 16 0 20 3 C18.82421875 4.51953125 18.82421875 4.51953125 17 6 C13.57635687 6.10243972 10.40756769 5.48679538 7 5 C7 9.62 7 14.24 7 19 C7.66 19.33 8.32 19.66 9 20 C8.67 21.32 8.34 22.64 8 24 C7.34 24 6.68 24 6 24 C6 27.96 6 31.92 6 36 C4.02 36 2.04 36 0 36 C0 24.12 0 12.24 0 0 Z " fill="#C17BFC" transform="translate(33,55)"/>
<path d="M0 0 C0.66 0 1.32 0 2 0 C2.00808685 1.27706818 2.01617371 2.55413635 2.02450562 3.86990356 C2.10199516 15.90593038 2.18974177 27.94184454 2.28752708 39.97772408 C2.33746973 46.16546512 2.38380015 52.35318927 2.421875 58.54101562 C2.45875317 64.51276159 2.5051204 70.48436544 2.55806351 76.45598984 C2.57659392 78.7341144 2.59170687 81.01226941 2.60334396 83.29043961 C2.62022928 86.48169757 2.64927052 89.67263102 2.68115234 92.86376953 C2.68331253 93.80532394 2.68547272 94.74687836 2.68769836 95.71696472 C2.74831907 100.46793791 2.89968547 104.63056185 5 109 C5.99 109.33 6.98 109.66 8 110 C8.6875 112.0625 8.6875 112.0625 9 114 C3.76524722 110.32152507 1.28483187 106.22333132 0 100 C-0.08529849 98.57618781 -0.12204643 97.14895904 -0.12025452 95.72259521 C-0.12162918 94.87568115 -0.12300385 94.02876709 -0.12442017 93.15618896 C-0.12082489 92.23549622 -0.11722961 91.31480347 -0.11352539 90.36621094 C-0.11367142 89.39026978 -0.11381744 88.41432861 -0.1139679 87.40881348 C-0.1132714 84.18397802 -0.10549126 80.95920037 -0.09765625 77.734375 C-0.09579114 75.49806754 -0.09436767 73.26175967 -0.09336853 71.02545166 C-0.08955071 65.14000317 -0.07972666 59.25457936 -0.06866455 53.36914062 C-0.05843466 47.36328465 -0.05386752 41.35742468 -0.04882812 35.3515625 C-0.03810376 23.56769749 -0.02103612 11.7838508 0 0 Z " fill="#B07EF6" transform="translate(3,37)"/>
<path d="M0 0 C1.04577713 -0.0071553 2.09155426 -0.01431061 3.16902161 -0.02168274 C4.31608078 -0.02437164 5.46313995 -0.02706055 6.6449585 -0.02983093 C8.45754402 -0.03968773 8.45754402 -0.03968773 10.30674744 -0.04974365 C14.31499478 -0.06949208 18.3232021 -0.0811446 22.33148193 -0.09111023 C23.71287811 -0.09515872 25.09427409 -0.09927567 26.47566986 -0.10346031 C32.96672995 -0.12250796 39.4577787 -0.13673937 45.94886136 -0.14507228 C53.43406184 -0.15484079 60.91896631 -0.18115165 68.40406251 -0.22157317 C74.19442054 -0.25176619 79.98469387 -0.26654419 85.77512908 -0.26985329 C89.23120373 -0.27220035 92.68696198 -0.2811151 96.14295197 -0.30631447 C100.00178932 -0.33399686 103.86023944 -0.32975428 107.71917725 -0.32279968 C108.8581395 -0.33560974 109.99710175 -0.3484198 111.170578 -0.36161804 C117.63302785 -0.31916613 121.71088311 0.23096393 126.94085693 4.14717102 C127.27085693 4.80717102 127.60085693 5.46717102 127.94085693 6.14717102 C126.95085693 6.14717102 125.96085693 6.14717102 124.94085693 6.14717102 C124.61085693 6.80717102 124.28085693 7.46717102 123.94085693 8.14717102 C122.95085693 5.17717102 122.95085693 5.17717102 121.94085693 2.14717102 C105.7637978 2.07702642 89.58678816 2.0241562 73.40961361 1.9917345 C65.89792223 1.97627905 58.38632547 1.9552149 50.87469482 1.92085266 C44.32599449 1.89090971 37.77736269 1.87158641 31.22859579 1.86490554 C27.76246343 1.86100153 24.2965271 1.85185443 20.83045769 1.82998085 C16.956983 1.8057355 13.08369844 1.80520417 9.21014404 1.80659485 C8.06646866 1.79580902 6.92279327 1.78502319 5.74446106 1.77391052 C-1.34211905 1.80144513 -6.74400597 2.21090673 -12.24664307 7.08467102 C-12.84476807 7.76529602 -13.44289307 8.44592102 -14.05914307 9.14717102 C-15.3924764 10.48050435 -16.72580973 11.81383769 -18.05914307 13.14717102 C-18.12164307 10.52217102 -18.12164307 10.52217102 -17.05914307 7.14717102 C-11.8721502 2.66140184 -6.89148661 0.03236562 0 0 Z " fill="#9C52E0" transform="translate(23.05914306640625,1.8528289794921875)"/>
<path d="M0 0 C3.23738286 1.75246758 4.70346252 2.64945007 5.890625 6.2109375 C5.230625 6.2109375 4.570625 6.2109375 3.890625 6.2109375 C3.890625 5.5509375 3.890625 4.8909375 3.890625 4.2109375 C0.920625 3.8809375 -2.049375 3.5509375 -5.109375 3.2109375 C-5.109375 2.5509375 -5.109375 1.8909375 -5.109375 1.2109375 C-7.749375 1.2109375 -10.389375 1.2109375 -13.109375 1.2109375 C-13.109375 1.8709375 -13.109375 2.5309375 -13.109375 3.2109375 C-13.74875 3.4790625 -14.388125 3.7471875 -15.046875 4.0234375 C-17.44069186 5.09761502 -17.44069186 5.09761502 -18.109375 8.2109375 C-17.449375 8.5409375 -16.789375 8.8709375 -16.109375 9.2109375 C-15.921875 12.0234375 -15.921875 12.0234375 -16.109375 15.2109375 C-16.5940625 15.654375 -17.07875 16.0978125 -17.578125 16.5546875 C-19.74102513 18.89415091 -19.6125045 20.76413907 -19.796875 23.8984375 C-19.86261719 24.89230469 -19.92835937 25.88617188 -19.99609375 26.91015625 C-20.05216797 28.04904297 -20.05216797 28.04904297 -20.109375 29.2109375 C-23.61258394 23.95612408 -22.63124538 17.32700378 -22.109375 11.2109375 C-20.94673346 7.12970611 -19.17391296 4.21095801 -16.046875 1.2734375 C-11.12853644 -1.4237159 -5.28722548 -1.97781398 0 0 Z " fill="#B77EEE" transform="translate(121.109375,53.7890625)"/>
<path d="M0 0 C1.32 0.33 2.64 0.66 4 1 C4 1.66 4 2.32 4 3 C5.32 3.33 6.64 3.66 8 4 C7.34 6.64 6.68 9.28 6 12 C5.34 12 4.68 12 4 12 C4 12.99 4 13.98 4 15 C1.82639854 17.17867997 0.49675097 17.94355103 -2.578125 18.29296875 C-3.45984375 18.25816406 -4.3415625 18.22335938 -5.25 18.1875 C-6.14203125 18.16042969 -7.0340625 18.13335937 -7.953125 18.10546875 C-8.62859375 18.07066406 -9.3040625 18.03585938 -10 18 C-9.67 17.34 -9.34 16.68 -9 16 C-9.33 15.67 -9.66 15.34 -10 15 C-10 14.67 -10 14.34 -10 14 C-7.36 14 -4.72 14 -2 14 C-1.67 13.01 -1.34 12.02 -1 11 C-0.34 10.67 0.32 10.34 1 10 C0.67 9.01 0.34 8.02 0 7 C-0.03954234 4.66700175 -0.04401732 2.33291811 0 0 Z " fill="#C37CFC" transform="translate(53,59)"/>
<path d="M0 0 C-0.3125 1.9375 -0.3125 1.9375 -1 4 C-1.99 4.33 -2.98 4.66 -4 5 C-4.144375 5.78375 -4.28875 6.5675 -4.4375 7.375 C-5 10 -5 10 -6 12 C-6.0396713 13.66619446 -6.04384447 15.33391013 -6 17 C-6.99 17 -7.98 17 -9 17 C-8.98839844 16.32453125 -8.97679688 15.6490625 -8.96484375 14.953125 C-8.95582031 14.06109375 -8.94679688 13.1690625 -8.9375 12.25 C-8.92009766 10.92742187 -8.92009766 10.92742187 -8.90234375 9.578125 C-8.99173802 7.2181162 -9.33087179 5.25501476 -10 3 C-6.48812804 0.59185923 -4.27343092 -0.36629408 0 0 Z " fill="#C27AFC" transform="translate(113,56)"/>
<path d="M0 0 C0.928125 0.515625 1.85625 1.03125 2.8125 1.5625 C2.791875 2.42875 2.77125 3.295 2.75 4.1875 C2.80988956 7.42153648 3.20830933 10.39049897 3.8125 13.5625 C2.4925 13.2325 1.1725 12.9025 -0.1875 12.5625 C-0.1875 11.5725 -0.1875 10.5825 -0.1875 9.5625 C-0.8475 9.5625 -1.5075 9.5625 -2.1875 9.5625 C-4.3125 7.9375 -4.3125 7.9375 -6.1875 5.5625 C-6.4375 2.3125 -6.4375 2.3125 -6.1875 -0.4375 C-3.1875 -1.4375 -3.1875 -1.4375 0 0 Z " fill="#C17BFB" transform="translate(78.1875,68.4375)"/>
<path d="M0 0 C2.97 0.33 5.94 0.66 9 1 C7.74859237 5.48421069 6.31613466 8.68386534 3 12 C0.25 12.8125 0.25 12.8125 -2 13 C-1 11 -1 11 2 10 C2.80212628 8.12612784 2.80212628 8.12612784 3.1875 5.9375 C3.42533203 4.83728516 3.42533203 4.83728516 3.66796875 3.71484375 C3.77753906 3.14894531 3.88710937 2.58304687 4 2 C3.01 2.495 3.01 2.495 2 3 C1.67 3.99 1.34 4.98 1 6 C-0.98 6.33 -2.96 6.66 -5 7 C-4.360625 6.21625 -3.72125 5.4325 -3.0625 4.625 C-1.01857687 2.20460719 -1.01857687 2.20460719 0 0 Z " fill="#B382E7" transform="translate(121,79)"/>
<path d="M0 0 C0.66 0 1.32 0 2 0 C1.82802165 5.24533975 1.82802165 5.24533975 1 8 C-1.6875 10.125 -1.6875 10.125 -5 11 C-8.375 10.1875 -8.375 10.1875 -11 9 C-10.67 8.01 -10.34 7.02 -10 6 C-7.93359375 5.26953125 -7.93359375 5.26953125 -5.4375 4.8125 C-4.61121094 4.65394531 -3.78492187 4.49539062 -2.93359375 4.33203125 C-2.29550781 4.22246094 -1.65742187 4.11289063 -1 4 C-0.67 2.68 -0.34 1.36 0 0 Z " fill="#C37AFC" transform="translate(123,81)"/>
<path d="M0 0 C3.23738286 1.75246758 4.70346252 2.64945007 5.890625 6.2109375 C5.230625 6.2109375 4.570625 6.2109375 3.890625 6.2109375 C3.890625 5.5509375 3.890625 4.8909375 3.890625 4.2109375 C0.920625 3.8809375 -2.049375 3.5509375 -5.109375 3.2109375 C-5.109375 2.5509375 -5.109375 1.8909375 -5.109375 1.2109375 C-7.749375 1.2109375 -10.389375 1.2109375 -13.109375 1.2109375 C-13.109375 1.8709375 -13.109375 2.5309375 -13.109375 3.2109375 C-13.7075 3.4790625 -14.305625 3.7471875 -14.921875 4.0234375 C-17.08162308 5.19587217 -18.46727756 6.40463032 -20.109375 8.2109375 C-18.84028037 4.29789571 -17.64680524 2.35483462 -14.109375 0.2109375 C-9.46667868 -1.33662794 -4.65747349 -1.74224008 0 0 Z " fill="#B287E5" transform="translate(121.109375,53.7890625)"/>
<path d="M0 0 C1.33333333 1 2.66666667 2 4 3 C4.721875 3.474375 5.44375 3.94875 6.1875 4.4375 C8.2750414 6.23710466 8.62965297 7.31498405 9 10 C8.34 9.67 7.68 9.34 7 9 C3.13938967 7.71312989 0.05849717 7.86242382 -4 8 C-3.67 7.01 -3.34 6.02 -3 5 C-2.34 5 -1.68 5 -1 5 C-0.67 3.35 -0.34 1.7 0 0 Z " fill="#C37AFC" transform="translate(84,81)"/>
<path d="M0 0 C0.33 1.32 0.66 2.64 1 4 C0.34 4 -0.32 4 -1 4 C-0.773125 5.093125 -0.54625 6.18625 -0.3125 7.3125 C0 11 0 11 -1.4375 12.9375 C-1.953125 13.288125 -2.46875 13.63875 -3 14 C-3.66 13.67 -4.32 13.34 -5 13 C-5.28526928 9.62114388 -5.46087248 6.36708009 -5 3 C-2.5 0.875 -2.5 0.875 0 0 Z " fill="#C37AFD" transform="translate(70,74)"/>
<path d="M0 0 C3.465 1.98 3.465 1.98 7 4 C6.01 4.33 5.02 4.66 4 5 C4 5.99 4 6.98 4 8 C5.98 8.66 7.96 9.32 10 10 C10 10.33 10 10.66 10 11 C4.32723489 11.29341888 1.00932754 11.00559652 -4 8 C-2 7 -2 7 1 7 C0.67 4.69 0.34 2.38 0 0 Z " fill="#B27FE8" transform="translate(109,82)"/>
<path d="M0 0 C1.98 0 3.96 0 6 0 C6.04254356 1.99954746 6.04080783 4.00041636 6 6 C5.67 6.33 5.34 6.66 5 7 C3.1875 6.94921875 3.1875 6.94921875 1 6.6875 C0.278125 6.60886719 -0.44375 6.53023438 -1.1875 6.44921875 C-1.785625 6.30097656 -2.38375 6.15273437 -3 6 C-3.33 5.34 -3.66 4.68 -4 4 C-2.35 4 -0.7 4 1 4 C0.67 2.68 0.34 1.36 0 0 Z " fill="#B480E5" transform="translate(91,86)"/>
<path d="M0 0 C3 1 3 1 5 3 C5.99 3 6.98 3 8 3 C8.33 4.65 8.66 6.3 9 8 C8.01 8.33 7.02 8.66 6 9 C4.5 7.625 4.5 7.625 3 6 C3 5.34 3 4.68 3 4 C2.34 4 1.68 4 1 4 C0.67 2.68 0.34 1.36 0 0 Z " fill="#AD47FB" transform="translate(143,5)"/>
<path d="M0 0 C2.31 0.33 4.62 0.66 7 1 C6.01 1.495 6.01 1.495 5 2 C5.33 3.32 5.66 4.64 6 6 C6.66 6 7.32 6 8 6 C8.33 7.32 8.66 8.64 9 10 C8.2575 9.525625 7.515 9.05125 6.75 8.5625 C4.38949985 7.22130673 2.63351523 6.487688 0 6 C0 5.34 0 4.68 0 4 C0.66 4 1.32 4 2 4 C2 3.01 2 2.02 2 1 C1.34 0.67 0.68 0.34 0 0 Z " fill="#A04DE9" transform="translate(138,3)"/>
<path d="M0 0 C0.33 0 0.66 0 1 0 C0.91291331 1.45945288 0.80473093 2.91765868 0.6875 4.375 C0.62949219 5.18710938 0.57148438 5.99921875 0.51171875 6.8359375 C0 9 0 9 -3 11 C-5.33199388 11.07905064 -7.66832622 11.08798769 -10 11 C-9.01 10.34 -8.02 9.68 -7 9 C-3.23729409 6.33857387 -1.35769621 4.44336943 0 0 Z " fill="#984FE1" transform="translate(149,136)"/>
<path d="M0 0 C0.33 0 0.66 0 1 0 C1.04898437 0.79664063 1.09796875 1.59328125 1.1484375 2.4140625 C1.5688806 10.43339423 1.5688806 10.43339423 4 18 C4.99 18.33 5.98 18.66 7 19 C7.6875 21.0625 7.6875 21.0625 8 23 C3.86887864 20.09704986 1.60790348 17.82371045 0 13 C-0.23826612 8.65423311 -0.17414865 4.34726629 0 0 Z " fill="#A363E8" transform="translate(4,128)"/>
<path d="M0 0 C6.91428571 0.94285714 6.91428571 0.94285714 10 3 C10.33 3.99 10.66 4.98 11 6 C8.75 6.75 8.75 6.75 6 7 C3.8125 5.125 3.8125 5.125 2 3 C1.34 2.67 0.68 2.34 0 2 C0 1.34 0 0.68 0 0 Z " fill="#C07AFD" transform="translate(116,58)"/>
<path d="M0 0 C5.45454545 -0.36363636 5.45454545 -0.36363636 7.875 1.25 C9 3 9 3 9 7 C5.92346162 5.97448721 5.19203004 5.19203004 3 3 C2.01 2.67 1.02 2.34 0 2 C0 1.34 0 0.68 0 0 Z " fill="#C37BFC" transform="translate(78,55)"/>
<path d="M0 0 C1.98 0.495 1.98 0.495 4 1 C3.34 3.31 2.68 5.62 2 8 C1.01 8 0.02 8 -1 8 C-0.67 5.36 -0.34 2.72 0 0 Z " fill="#C17BFC" transform="translate(72,59)"/>
<path d="M0 0 C2 2 2 2 2 5 C-0.64 5.66 -3.28 6.32 -6 7 C-6.99 5.02 -7.98 3.04 -9 1 C-7.02 1.99 -7.02 1.99 -5 3 C-5 3.66 -5 4.32 -5 5 C-3.68 4.67 -2.36 4.34 -1 4 C-0.67 2.68 -0.34 1.36 0 0 Z " fill="#B084DE" transform="translate(127,60)"/>
<path d="M0 0 C0.66 0 1.32 0 2 0 C1.45773019 3.79588866 -0.20127563 5.47211993 -3 8 C-2.25 2.25 -2.25 2.25 0 0 Z " fill="#713AAC" transform="translate(8,7)"/>
<path d="M0 0 C8.19256018 -0.63019694 8.19256018 -0.63019694 11.5625 2 C12.036875 2.66 12.51125 3.32 13 4 C12.67 4.66 12.34 5.32 12 6 C11.505 5.360625 11.01 4.72125 10.5 4.0625 C7.01193613 1.18484731 4.46538959 1.29769264 0 1 C0 0.67 0 0.34 0 0 Z " fill="#B284E2" transform="translate(76,54)"/>
<path d="M0 0 C0.66 0 1.32 0 2 0 C1.34 2.97 0.68 5.94 0 9 C-0.33 9 -0.66 9 -1 9 C-1.625 6.1875 -1.625 6.1875 -2 3 C-1.34 2.01 -0.68 1.02 0 0 Z " fill="#AF82E5" transform="translate(92,72)"/>
<path d="M0 0 C0.99 0 1.98 0 3 0 C3 2.31 3 4.62 3 7 C2.34 7 1.68 7 1 7 C0.67 4.69 0.34 2.38 0 0 Z " fill="#A448F7" transform="translate(152,13)"/>
</svg>
